<?xml version="1.0" encoding="utf-8"?>
<!-- Generator: Adobe Illustrator 23.0.1, SVG Export Plug-In . SVG Version: 6.00 Build 0)  -->
<svg version="1.1" id="Layer_1" xmlns="http://www.w3.org/2000/svg" xmlns:xlink="http://www.w3.org/1999/xlink" x="0px" y="0px"
	 viewBox="0 0 1000 1000" style="enable-background:new 0 0 1000 1000;" xml:space="preserve">
<style type="text/css">
	.st0{fill:#000D5C;}
</style>
<path class="st0" d="M313.1,513.1c0,0,4.4-3.4,7.6,0c82.9,58.2,420.4,33.6,432.7-39.1c0.8-2.2,3.7-1.9,3,0
	C719.1,626.5,259.5,579.5,259.9,538c0.5-2.8,1.2-4.1,4.1-4.1C286.5,533.9,313.1,513.1,313.1,513.1z"/>
<path class="st0" d="M728.2,333.5c-0.1-0.1-0.3-0.2-0.5-0.3c-11.1-3.9-133.8,37.6-143.6,87.2c-0.2,0.8-0.9,1.4-1.7,1.4
	c-31.7-1.4-49.4,4.2-54.7,14.8c-1.6,2.9-6.9,1.3-8.8-2.4c-3.8-9-27.5-14.3-35.7-26.6c-16.5-25.2,11.4-76.5,64.2-39.9
	c6.2,4.3,8.7,9.9,13.6,16.8c2.8,3.2,7,3,8.8-1.7c0-0.1,0.1-0.3,0.1-0.4c7.7-42.8-100.6-61.4-142.8-16.5c-0.9,1.3-2.9,2.4-4,0
	c-18.6-45-154-39.6-165,8c-0.7,3,1.7,3.1,2.8,3c0.3,0,0.6-0.1,0.8-0.3c1.9-1.6,11.7-9.7,15.5-11.1c4.2-1.6,12-2.2,15.6,1.4
	s3.8,154.8-53.4,112.5c-1.7-1.7-4.6-1.7-5.5,0.5c-5.1,12.7,4.6,22.5,18.7,25.6c26.4,5.8,65.2,4.2,75.6-74.1c0.1-0.8,0.8-1.5,1.7-1.4
	c53.3,0.7,83.4-8.1,102.6-25.9c0.2-0.2,0.5-0.4,0.8-0.4c2.4-0.5,3.8,0,4.9,1.4c19.8,26.1,40.9,35.2,44,51.9
	c5.9,32-25.6,49.5-73.7,8.9c-0.1-0.1-0.2-0.2-0.4-0.2c-3.8-1.8-15.8-1-15.7,10.9c0,2.6,1.2,5.1,3.1,6.8
	c46.6,41.4,130.2,21.6,130.2,6.8c1.3-3.7,6.5-0.4,7.2,2c4.8,18.2,93.9,45.4,89.1-32.6c-0.2-2.6,4.5-1,5.5-1c9.9,0,48,37.6,48,37.6
	c1.1,0.9,2.5,1.2,3.9,0.9l20.1-4.5c4-0.9,6.5-4.7,5.8-8.8c-4.7-25.8-17.5-114.2,22.4-141.2c0.3-0.2,0.6-0.6,0.7-1
	C728.7,339.5,730.5,335.6,728.2,333.5z M389.4,370.3c0,0-26.1,18.4-26.3,18.4c-0.7,0-1.2,0.6-1.1,1.3l3.4,22.5
	c0.1,1-0.6,1.9-1.6,1.9h-1.3c-0.4,0-0.8-0.2-1.2-0.5l-13.3-13.3l-0.7-0.7c-0.5-0.5-1.2-0.6-1.9-0.3l-12.2,5.9
	c-0.6,0.3-1.3,0.2-1.7-0.3c-0.5-0.5-0.6-1.1-0.3-1.7l6.8-13.7c0.3-0.6,0.2-1.4-0.3-1.9l-0.6-0.6c-0.1-0.1-0.2-0.2-0.4-0.3l-13.4-7.3
	c-0.5-0.3-0.8-0.8-0.8-1.4v-0.9c0-0.8,0.6-1.5,1.4-1.6l13.1-2.1c0.3-0.1,0.6-0.2,0.9-0.5l1.4-1.4c0.2-0.2,0.3-0.4,0.4-0.7l5-17.8
	c0.1-0.5,0.6-0.8,1.1-0.8h0.1c0.4,0,0.8,0.2,1,0.6l7.8,15.5c0.1,0.2,0.2,0.3,0.3,0.4l1.1,1.1c0.3,0.3,0.8,0.5,1.3,0.5l31.1-2.5
	c0.3,0,0.6,0.1,0.9,0.3l0.3,0.3C390,369.1,389.9,369.9,389.4,370.3z M594.5,444.9l-17.7,13.1c0,0,0,0,0,0l-0.5,0.5
	c-0.5,0.5-0.5,1.3,0,1.9l15.8,17.3c0.3,0.3,0.4,0.8,0.2,1.2l-0.9,1.7c-1,1.9-3.2,2.6-5.1,1.8l-21.4-9.8c-0.1,0-0.2-0.1-0.3-0.1h-7.5
	c-0.2,0-0.4,0.1-0.5,0.2L537.9,487c-0.1,0.1-0.3,0.1-0.5,0l-0.8-0.9c-1.2-1.4-1.7-3.2-1.2-5l3.7-15c0.2-0.9,0-1.9-0.6-2.6
	c-0.1-0.1-0.2-0.3-0.4-0.4L520,450.8c-0.4-0.3-0.6-0.8-0.5-1.3l0-0.1c0.1-0.5,0.6-0.9,1.1-0.9h21.2c0.1,0,0.1-0.1,0.1-0.1l1.5-17.3
	c0.1-0.7,0.7-1.3,1.4-1.3h0.1c0.4,0,0.8,0.2,1,0.5l11,12.6c0,0,0,0,0,0l0.6,0.6c0.4,0.4,1,0.7,1.6,0.7l34.2-0.8
	c0.4,0,0.8,0.1,1.1,0.4C595,444,594.9,444.6,594.5,444.9z M691.7,390.1c0,0.6-0.3,1.2-0.8,1.6l-30,23.2c-0.1,0.1-0.2,0.1-0.2,0.2
	l-0.5,0.5c-0.7,0.7-1.1,1.7-1.1,2.7l0.7,38c0,1-0.8,1.9-1.9,1.9h-0.2c-0.9,0-1.6-0.5-2-1.3l-10.8-22.4c-0.4-0.7-1.2-1.1-2-0.8
	l-1.3,0.4c-0.2,0.1-0.5,0.2-0.7,0.3l-15.1,12.1c-0.5,0.4-1.8-0.2-2-0.9l-0.6-1.5c-0.2-0.7,0-1.5,0.3-2l12.8-21.1
	c0.3-0.4,0.4-1,0.4-1.5V417c0-0.8-0.3-1.6-0.8-2.2l-9.7-11.2c-0.8-1-0.8-2.4,0.1-3.3l0.1-0.1c0.5-0.5,1.1-0.7,1.7-0.8l12.5-1.2
	c0.6-0.1,1.1-0.3,1.5-0.7l1.4-1.4c0.3-0.3,0.6-0.7,0.7-1.2l6.7-25.7c0.2-0.9,1-1.5,2-1.5c0.6,0,1,0.4,1.2,0.9l5.4,23.2
	c0.1,0.5,0.4,1,0.7,1.3l0.2,0.2c0.7,0.7,1.7,1,2.7,0.8l27.8-5C691.2,389.1,691.7,389.5,691.7,390.1L691.7,390.1z"/>
</svg>
